<svg xmlns="http://www.w3.org/2000/svg" viewBox="0 0 468.293 468.293"><path fill="#e1e6e9" d="M215.017 215.206v224.393l19.129 28.694V215.206z"/><path fill="#d5d6db" d="M234.146 215.206v253.087l19.13-28.694V215.206z"/><path d="M344.141 109.994c0 60.784-49.258 109.994-109.994 109.994-50.836 0-93.639-34.481-106.216-81.348-2.487-9.134-3.778-18.699-3.778-28.646C124.152 49.258 173.41 0 234.146 0c34.05 0 64.466 15.447 84.6 39.741 15.878 19.034 25.395 43.568 25.395 70.253z" fill="#d15241"/><path d="M322.524 68.34c0 60.736-49.258 109.994-109.994 109.994-34.05 0-64.418-15.447-84.6-39.694-2.487-9.134-3.778-18.699-3.778-28.646C124.152 49.258 173.41 0 234.146 0c34.05 0 64.466 15.447 84.6 39.741 2.487 9.135 3.778 18.7 3.778 28.599z" fill="#e56353"/><path d="M263.079 51.46c.895-8.058-5.227-15.286-13.18-16.86-19.33-3.825-66.465-7.214-87.194 43.859 0 0-5.054 13.142 9.477 11.499 7.003-.792 13.262-4.639 17.67-10.138 7.158-8.931 24.145-23.471 55.723-16.601 7.415 1.613 15.331-2.481 17.163-9.845.151-.612.267-1.25.341-1.914z" fill="#e1e6e9"/></svg>