<svg width="1201" height="283" viewBox="0 0 1201 283" fill="none" xmlns="http://www.w3.org/2000/svg">
    <path fill-rule="evenodd" clip-rule="evenodd" d="M0.500275 0.5C0.500275 0.5 31.0606 1.96657 50.5002 7C150.952 33.0097 200.5 103 300.5 97C400.5 91 500.5 7 600.5 7C700.5 7 800.5 91 900.5 109C1000.5 127 997.765 73.8689 1058.5 47.5C1094 32.0863 1111.37 16.9334 1148.5 6C1168.41 0.136478 1200.5 0.499999 1200.5 0.499999V283H1150.5C1100.5 283 1000.5 283 900.5 283C800.5 283 700.5 283 600.5 283C500.5 283 400.5 283 300.5 283C200.5 283 100.5 283 50.5002 283H0.500244L0.500275 0.5Z" fill="#16141F"/>
</svg>
